<svg width="62" height="45" viewBox="0 0 62 45" fill="none" xmlns="http://www.w3.org/2000/svg">
<path d="M0 12C0 5.37258 5.37258 0 12 0H50C56.6274 0 62 5.37258 62 12V33C62 39.6274 56.6274 45 50 45H12C5.37258 45 0 39.6274 0 33V12Z" fill="#1ED760"/>
<path d="M32.6557 28.7931V18.591C32.6557 17.9248 33.3543 17.4895 33.9523 17.7831L44.3433 22.8842C45.0145 23.2136 45.0145 24.1705 44.3433 24.4999L33.9523 29.601C33.3543 29.8946 32.6557 29.4593 32.6557 28.7931Z" fill="#1ED760"/>
<path d="M29.3223 16.3283L23.6393 14.2359C23.122 14.0455 22.5565 14.3607 22.4465 14.9009L20.989 22.0557M44.3433 24.4999L33.9523 29.601C33.3543 29.8946 32.6557 29.4593 32.6557 28.7931V18.591C32.6557 17.9248 33.3543 17.4895 33.9523 17.7831L44.3433 22.8842C45.0145 23.2136 45.0145 24.1705 44.3433 24.4999Z" stroke="white" stroke-width="2.5" stroke-linecap="round" stroke-linejoin="round"/>
<path d="M20.989 21.9738C34.3223 17.8829 32.6557 31.8739 20.989 31.8738" stroke="white" stroke-width="2.5" stroke-linecap="round"/>
</svg>
