<svg width="32" height="32" viewBox="0 0 32 32" fill="none" xmlns="http://www.w3.org/2000/svg">
<path d="M10.1742 8.75H21.8263V7.25H10.1742V8.75ZM21.8263 8.75C22.7732 8.75 23.491 9.60446 23.3276 10.5372L24.805 10.7961C25.1293 8.94537 23.7052 7.25 21.8263 7.25V8.75ZM10.1742 7.25C8.29525 7.25 6.87112 8.94537 7.19541 10.7961L8.6729 10.5372C8.50946 9.60446 9.22721 8.75 10.1742 8.75V7.25Z" fill="white"/>
<path d="M20.0065 5.34543L20.0865 4.59971L20.0065 5.34543ZM21.9121 7.47122L22.6621 7.47285V7.47285L21.9121 7.47122ZM11.9931 5.34543L12.0731 6.09115H12.0731L11.9931 5.34543ZM10.0874 7.47122L10.8374 7.46959L10.0874 7.47122ZM12.5236 6.08325H19.4759V4.58325H12.5236V6.08325ZM19.4759 6.08325C19.7742 6.08325 19.8631 6.08435 19.9264 6.09115L20.0865 4.59971C19.9229 4.58216 19.7337 4.58325 19.4759 4.58325V6.08325ZM22.612 8.08157C22.6401 7.82531 22.6618 7.63739 22.6621 7.47285L21.1622 7.46959C21.162 7.53332 21.1534 7.62184 21.121 7.91827L22.612 8.08157ZM19.9264 6.09115C20.6304 6.1667 21.1637 6.76158 21.1622 7.46959L22.6621 7.47285C22.6654 5.99713 21.5538 4.75718 20.0865 4.59971L19.9264 6.09115ZM12.5236 4.58325C12.2658 4.58325 12.0767 4.58216 11.9131 4.59971L12.0731 6.09115C12.1365 6.08435 12.2254 6.08325 12.5236 6.08325V4.58325ZM10.8786 7.91827C10.8461 7.62181 10.8375 7.53333 10.8374 7.46959L9.33741 7.47285C9.33777 7.6374 9.35945 7.82529 9.38751 8.08157L10.8786 7.91827ZM11.9131 4.59971C10.4458 4.75718 9.3342 5.99713 9.33741 7.47285L10.8374 7.46959C10.8359 6.76158 11.3692 6.1667 12.0731 6.09115L11.9131 4.59971Z" fill="white"/>
<path fill-rule="evenodd" clip-rule="evenodd" d="M12.2402 10H19.4618C23.1238 10 24.9548 10 25.9833 11.1747C26.4776 11.7393 26.6784 12.4516 26.7 13.4422L26.2542 18.0319L25.8269 21.2366C25.4473 24.0831 25.2576 25.5064 24.284 26.3588C23.3105 27.2111 21.8746 27.2111 19.0028 27.2111H19.0028H12.6992H12.6992C9.82739 27.2111 8.3915 27.2111 7.41797 26.3588C6.44443 25.5064 6.25466 24.0831 5.87511 21.2365L5.41615 17.7943C4.93216 14.1644 4.69017 12.3495 5.71868 11.1747C6.74719 10 8.5782 10 12.2402 10ZM19.8667 18.606C19.8667 17.8532 19.2501 17.413 18.0167 16.5326C17.6762 16.2896 17.3385 16.0608 17.0282 15.8701C16.7559 15.7028 16.4476 15.5298 16.1284 15.36C14.8979 14.7052 14.2827 14.3779 13.7309 14.7403C13.1791 15.1027 13.1289 15.8615 13.0286 17.379C13.0003 17.8082 12.9823 18.2289 12.9823 18.606C12.9823 18.9832 13.0003 19.4039 13.0286 19.8331C13.1289 21.3506 13.1791 22.1093 13.7309 22.4718C14.2827 22.8342 14.8979 22.5069 16.1284 21.8521C16.4476 21.6823 16.7559 21.5092 17.0282 21.342C17.3385 21.1513 17.6762 20.9225 18.0167 20.6795C19.2501 19.7991 19.8667 19.3589 19.8667 18.606Z" fill="white"/>
</svg>
