<svg width="31" height="30" viewBox="0 0 31 30" fill="none" xmlns="http://www.w3.org/2000/svg">
<path fill-rule="evenodd" clip-rule="evenodd" d="M15.8964 11.1486C13.8264 11.1486 12.1483 12.8124 12.1483 14.8648C12.1483 16.9172 13.8264 18.581 15.8964 18.581C17.9664 18.581 19.6444 16.9172 19.6444 14.8648C19.6444 12.8124 17.9664 11.1486 15.8964 11.1486ZM13.6475 14.8648C13.6475 13.6334 14.6544 12.6351 15.8964 12.6351C17.1384 12.6351 18.1452 13.6334 18.1452 14.8648C18.1452 16.0963 17.1384 17.0946 15.8964 17.0946C14.6544 17.0946 13.6475 16.0963 13.6475 14.8648Z" fill="white"/>
<path fill-rule="evenodd" clip-rule="evenodd" d="M15.8711 4.21167C15.4269 4.21166 15.0561 4.21166 14.7516 4.23225C14.4347 4.25369 14.1353 4.29992 13.8451 4.41912C13.1716 4.69571 12.6365 5.22624 12.3575 5.894C12.2123 6.24163 12.173 6.608 12.158 7.00623C12.1459 7.32635 11.9829 7.59344 11.7425 7.73109C11.502 7.86873 11.1873 7.8751 10.9016 7.72541C10.5463 7.53919 10.2066 7.38977 9.83037 7.34066C9.10764 7.24632 8.37671 7.4405 7.79838 7.8805C7.54915 8.07012 7.35909 8.30407 7.1819 8.56549C7.01168 8.81662 6.82626 9.13506 6.60415 9.51651L6.57891 9.55986C6.35679 9.9413 6.17137 10.2597 6.03713 10.5314C5.89739 10.8143 5.78808 11.0945 5.74707 11.4033C5.65192 12.1199 5.84777 12.8446 6.29154 13.418C6.52254 13.7165 6.82283 13.9334 7.16309 14.1454C7.43673 14.3159 7.58858 14.5894 7.58856 14.8648C7.58855 15.1401 7.4367 15.4136 7.1631 15.5841C6.82279 15.7961 6.52246 16.013 6.29144 16.3116C5.84768 16.885 5.65183 17.6097 5.74697 18.3263C5.78798 18.6351 5.89729 18.9153 6.03703 19.1981C6.17127 19.4698 6.35669 19.7883 6.57881 20.1697L6.60405 20.2131C6.82616 20.5945 7.01158 20.913 7.1818 21.1641C7.359 21.4255 7.54905 21.6595 7.79829 21.8491C8.37661 22.2891 9.10754 22.4833 9.83027 22.3889C10.2065 22.3398 10.5462 22.1904 10.9015 22.0042C11.1872 21.8545 11.502 21.8609 11.7424 21.9985C11.9829 22.1362 12.1459 22.4033 12.158 22.7235C12.173 23.1217 12.2123 23.488 12.3575 23.8356C12.6365 24.5034 13.1716 25.0339 13.8451 25.3105C14.1353 25.4297 14.4347 25.476 14.7516 25.4974C15.056 25.518 15.4269 25.518 15.8711 25.518H15.9216C16.3658 25.518 16.7367 25.518 17.0411 25.4974C17.3581 25.476 17.6574 25.4297 17.9477 25.3105C18.6212 25.0339 19.1562 24.5034 19.4352 23.8356C19.5804 23.488 19.6198 23.1216 19.6348 22.7234C19.6468 22.4033 19.8098 22.1362 20.0502 21.9985C20.2907 21.8608 20.6055 21.8544 20.8912 22.0042C21.2465 22.1903 21.5861 22.3397 21.9624 22.3889C22.6851 22.4832 23.416 22.289 23.9943 21.849C24.2436 21.6594 24.4336 21.4254 24.6108 21.164C24.781 20.9129 24.9664 20.5945 25.1885 20.2131L25.2138 20.1697C25.4359 19.7883 25.6214 19.4698 25.7556 19.1981C25.8953 18.9152 26.0047 18.635 26.0457 18.3262C26.1408 17.6096 25.945 16.8849 25.5012 16.3115C25.2702 16.013 24.9699 15.796 24.6296 15.584C24.356 15.4136 24.2042 15.1401 24.2042 14.8648C24.2042 14.5895 24.356 14.316 24.6296 14.1456C24.9699 13.9336 25.2703 13.7166 25.5013 13.4181C25.9451 12.8447 26.1409 12.12 26.0458 11.4034C26.0048 11.0946 25.8954 10.8144 25.7557 10.5315C25.6215 10.2598 25.4361 9.94141 25.214 9.56L25.1887 9.51662C24.9666 9.13516 24.7811 8.81669 24.6109 8.56556C24.4337 8.30414 24.2437 8.07019 23.9944 7.88057C23.4161 7.44057 22.6852 7.24638 21.9625 7.34073C21.5862 7.38984 21.2466 7.53924 20.8913 7.72544C20.6056 7.87515 20.2908 7.86878 20.0503 7.73112C19.8098 7.59345 19.6468 7.32633 19.6348 7.00617C19.6197 6.60797 19.5804 6.24162 19.4352 5.894C19.1562 5.22624 18.6212 4.69571 17.9477 4.41912C17.6574 4.29992 17.3581 4.25369 17.0411 4.23225C16.7367 4.21166 16.3658 4.21166 15.9216 4.21167H15.8711ZM14.4188 5.79245C14.4959 5.76078 14.613 5.73157 14.8537 5.71529C15.101 5.69856 15.4204 5.69816 15.8964 5.69816C16.3723 5.69816 16.6917 5.69856 16.9391 5.71529C17.1797 5.73157 17.2968 5.76078 17.374 5.79245C17.6801 5.91817 17.9233 6.15933 18.0501 6.46285C18.0901 6.55859 18.1232 6.70785 18.1366 7.06173C18.1662 7.84697 18.575 8.60304 19.3007 9.01845C20.0264 9.43387 20.8911 9.40684 21.5918 9.03966C21.9076 8.87418 22.0545 8.82802 22.1581 8.8145C22.4867 8.77161 22.8189 8.85988 23.0818 9.05988C23.148 9.11026 23.2321 9.19625 23.3666 9.39471C23.5049 9.59872 23.665 9.8728 23.9029 10.2815C24.1409 10.6902 24.3003 10.9647 24.4093 11.1854C24.5154 11.4001 24.5485 11.5153 24.5594 11.5974C24.6026 11.9231 24.5136 12.2525 24.3119 12.5132C24.2482 12.5954 24.1344 12.6985 23.832 12.8869C23.161 13.305 22.705 14.0339 22.705 14.8647C22.7049 15.6956 23.1609 16.4246 23.832 16.8427C24.1344 17.0311 24.2482 17.1342 24.3118 17.2164C24.5135 17.477 24.6025 17.8065 24.5593 18.1322C24.5484 18.2142 24.5153 18.3294 24.4092 18.5442C24.3002 18.7649 24.1408 19.0394 23.9028 19.4481C23.6649 19.8568 23.5048 20.1309 23.3665 20.3349C23.232 20.5333 23.1479 20.6193 23.0817 20.6697C22.8188 20.8697 22.4866 20.958 22.1581 20.9151C22.0544 20.9016 21.9075 20.8554 21.5917 20.6899C20.891 20.3227 20.0262 20.2957 19.3005 20.7112C18.5749 21.1266 18.1662 21.8827 18.1366 22.6678C18.1233 23.0218 18.0901 23.171 18.0501 23.2668C17.9233 23.5703 17.6801 23.8115 17.374 23.9372C17.2968 23.9689 17.1797 23.9981 16.9391 24.0144C16.6917 24.0311 16.3723 24.0315 15.8964 24.0315C15.4204 24.0315 15.101 24.0311 14.8537 24.0144C14.613 23.9981 14.4959 23.9689 14.4188 23.9372C14.1127 23.8115 13.8694 23.5703 13.7426 23.2668C13.7026 23.1711 13.6695 23.0218 13.6561 22.6679C13.6265 21.8827 13.2177 21.1266 12.492 20.7112C11.7664 20.2958 10.9016 20.3228 10.2009 20.69C9.88515 20.8555 9.73821 20.9016 9.63458 20.9152C9.30607 20.958 8.97383 20.8698 8.71095 20.6698C8.64473 20.6194 8.56064 20.5334 8.42612 20.3349C8.28784 20.1309 8.12778 19.8568 7.8898 19.4482C7.65182 19.0395 7.49246 18.765 7.38341 18.5442C7.27733 18.3295 7.24426 18.2143 7.23337 18.1323C7.19012 17.8065 7.27914 17.4771 7.48085 17.2165C7.54448 17.1342 7.65827 17.0311 7.96071 16.8427C8.63174 16.4247 9.08774 15.6957 9.08778 14.8649C9.08783 14.034 8.63181 13.3049 7.96072 12.8868C7.65835 12.6984 7.54457 12.5953 7.48095 12.5131C7.27924 12.2525 7.19022 11.9231 7.23347 11.5973C7.24436 11.5153 7.27742 11.4001 7.38351 11.1853C7.49256 10.9646 7.65192 10.6901 7.8899 10.2814C8.12788 9.87273 8.28794 9.59865 8.42622 9.39464C8.56074 9.19618 8.64483 9.11019 8.71105 9.05981C8.97393 8.85981 9.30617 8.77155 9.63468 8.81443C9.73831 8.82796 9.88527 8.87412 10.2011 9.03962C10.9017 9.40679 11.7664 9.43382 12.4921 9.01842C13.2178 8.60303 13.6265 7.84699 13.6561 7.06178C13.6695 6.70786 13.7026 6.5586 13.7426 6.46285C13.8694 6.15933 14.1127 5.91817 14.4188 5.79245Z" fill="white"/>
</svg>
