<svg width="32" height="32" viewBox="0 0 32 32" fill="none" xmlns="http://www.w3.org/2000/svg">
<g clip-path="url(#clip0_172_1419)">
<path d="M25.9734 16.4667C23.88 11.0267 16.4267 10.7334 18.2267 2.82669C18.36 2.24002 17.7334 1.78669 17.2267 2.09336C12.3867 4.94669 8.90671 10.6667 11.8267 18.16C12.0667 18.7734 11.3467 19.3467 10.8267 18.9467C8.41337 17.12 8.16004 14.4934 8.37337 12.6134C8.45337 11.92 7.54671 11.5867 7.16004 12.16C6.25337 13.5467 5.33337 15.7867 5.33337 19.16C5.84004 26.6267 12.1467 28.92 14.4134 29.2134C17.6534 29.6267 21.16 29.0267 23.68 26.72C26.4534 24.1467 27.4667 20.04 25.9734 16.4667ZM13.6 23.1734C15.52 22.7067 16.5067 21.32 16.7734 20.0934C17.2134 18.1867 15.4934 16.32 16.6534 13.3067C17.0934 15.8 21.0134 17.36 21.0134 20.08C21.12 23.4534 17.4667 26.3467 13.6 23.1734Z" fill="white"/>
</g>
<defs>
<clipPath id="clip0_172_1419">
<rect width="32" height="32" fill="white"/>
</clipPath>
</defs>
</svg>
